<svg id="Icon_awesome-behance" data-name="Icon awesome-behance" xmlns="http://www.w3.org/2000/svg" width="32.797" height="20.561" viewBox="0 0 32.797 20.561">
  <path id="Icon_awesome-behance-2" data-name="Icon awesome-behance" d="M13.21,14.514A4.321,4.321,0,0,0,15.966,10.3c0-4.02-2.995-5-6.451-5H0V25.481H9.782c3.667,0,7.112-1.759,7.112-5.859a4.862,4.862,0,0,0-3.684-5.107ZM4.436,8.746H8.6c1.6,0,3.041.45,3.041,2.306,0,1.714-1.122,2.4-2.7,2.4h-4.5V8.746ZM9.179,22.053H4.436V16.5H9.27c1.953,0,3.189.814,3.189,2.881,0,2.038-1.475,2.676-3.28,2.676ZM29.591,8.348H21.409V6.361h8.182V8.348ZM32.8,18.386c0-4.322-2.528-7.926-7.112-7.926-4.453,0-7.476,3.348-7.476,7.732,0,4.549,2.864,7.67,7.476,7.67,3.49,0,5.751-1.572,6.838-4.914H28.982c-.381,1.247-1.953,1.907-3.171,1.907-2.352,0-3.587-1.378-3.587-3.718H32.763C32.78,18.9,32.8,18.642,32.8,18.386ZM22.229,16.61a3.136,3.136,0,0,1,3.331-3.12c2.016,0,3.029,1.184,3.2,3.12Z" transform="translate(0 -5.302)" fill="#707070"/>
</svg>
