<svg id="Icon_awesome-dribbble" data-name="Icon awesome-dribbble" xmlns="http://www.w3.org/2000/svg" width="29.29" height="29.29" viewBox="0 0 29.29 29.29">
  <path id="Icon_awesome-dribbble-2" data-name="Icon awesome-dribbble" d="M15.207.563A14.645,14.645,0,1,0,29.852,15.207,14.662,14.662,0,0,0,15.207.563ZM24.89,7.316a12.45,12.45,0,0,1,2.825,7.792,29.233,29.233,0,0,0-8.71-.4c-.34-.829-.66-1.559-1.1-2.457A16.663,16.663,0,0,0,24.89,7.316ZM23.5,5.87a14.124,14.124,0,0,1-6.556,4.519,66.771,66.771,0,0,0-4.667-7.323A12.477,12.477,0,0,1,23.5,5.87ZM9.889,3.906a79.817,79.817,0,0,1,4.638,7.234A46.659,46.659,0,0,1,2.963,12.665,12.555,12.555,0,0,1,9.889,3.906ZM2.7,15.227c0-.128,0-.255.006-.382a46.143,46.143,0,0,0,12.856-1.78c.358.7.7,1.412,1.014,2.123a19.376,19.376,0,0,0-10.661,8.4A12.459,12.459,0,0,1,2.7,15.227Zm4.831,9.868c1.307-2.671,4.853-6.119,9.9-7.84a52,52,0,0,1,2.669,9.486A12.484,12.484,0,0,1,7.529,25.095Zm14.667.5a53.99,53.99,0,0,0-2.43-8.919,18.36,18.36,0,0,1,7.792.535A12.531,12.531,0,0,1,22.2,25.6Z" transform="translate(-0.563 -0.563)" fill="#707070"/>
</svg>
