<svg xmlns="http://www.w3.org/2000/svg" width="38.534" height="38.534" viewBox="0 0 38.534 38.534">
  <path id="Icon_awesome-dribbble" data-name="Icon awesome-dribbble" d="M19.829.563A19.267,19.267,0,1,0,39.1,19.829,19.289,19.289,0,0,0,19.829.563ZM32.568,9.447A16.378,16.378,0,0,1,36.284,19.7a38.458,38.458,0,0,0-11.459-.53c-.447-1.091-.869-2.05-1.446-3.233C29.463,13.452,32.221,9.917,32.568,9.447Zm-1.829-1.9c-.3.422-2.773,3.751-8.625,5.945a87.843,87.843,0,0,0-6.141-9.634A16.414,16.414,0,0,1,30.738,7.544ZM12.833,4.961a105.007,105.007,0,0,1,6.1,9.518A61.384,61.384,0,0,1,3.72,16.484,16.517,16.517,0,0,1,12.833,4.961ZM3.373,19.854c0-.168,0-.336.008-.5A60.706,60.706,0,0,0,20.294,17.01c.471.922.921,1.858,1.334,2.793A25.491,25.491,0,0,0,7.6,30.858,16.391,16.391,0,0,1,3.373,19.854ZM9.728,32.837c1.719-3.514,6.384-8.05,13.019-10.314A68.407,68.407,0,0,1,26.258,35a16.423,16.423,0,0,1-16.53-2.166Zm19.3.659a71.029,71.029,0,0,0-3.2-11.734,24.155,24.155,0,0,1,10.251.7A16.486,16.486,0,0,1,29.024,33.5Z" transform="translate(-0.563 -0.563)" fill="#868ae1"/>
</svg>
