<svg xmlns="http://www.w3.org/2000/svg" width="31.187" height="31.186" viewBox="0 0 31.187 31.186">
  <path id="Icon_awesome-linkedin-in" data-name="Icon awesome-linkedin-in" d="M6.981,31.187H.515V10.365H6.981ZM3.744,7.525a3.762,3.762,0,1,1,3.744-3.78A3.776,3.776,0,0,1,3.744,7.525ZM31.18,31.187H24.728V21.051c0-2.416-.049-5.513-3.362-5.513-3.362,0-3.877,2.624-3.877,5.339v10.31H11.031V10.365h6.2v2.84h.09A6.794,6.794,0,0,1,23.44,9.843c6.544,0,7.747,4.309,7.747,9.906V31.187Z" transform="translate(0 -0.001)" fill="#868ae1"/>
</svg>
