<svg xmlns="http://www.w3.org/2000/svg" width="43.147" height="27.049" viewBox="0 0 43.147 27.049">
  <path id="Icon_awesome-behance" data-name="Icon awesome-behance" d="M17.379,17.422A5.685,5.685,0,0,0,21,11.879C21,6.59,17.064,5.3,12.517,5.3H0V31.849H12.869c4.824,0,9.356-2.315,9.356-7.708,0-3.333-1.581-5.8-4.847-6.719ZM5.835,9.834h5.476c2.1,0,4,.592,4,3.034,0,2.255-1.476,3.161-3.558,3.161H5.835V9.834Zm6.24,17.506H5.835V20.029H12.2c2.569,0,4.195,1.071,4.195,3.79,0,2.682-1.94,3.521-4.315,3.521ZM38.93,9.309H28.165V6.695H38.93V9.309Zm4.217,13.206c0-5.686-3.326-10.427-9.356-10.427-5.858,0-9.835,4.4-9.835,10.173,0,5.985,3.768,10.09,9.835,10.09,4.592,0,7.566-2.067,9-6.465H38.128c-.5,1.64-2.569,2.509-4.172,2.509-3.094,0-4.719-1.813-4.719-4.892H43.1C43.125,23.19,43.147,22.853,43.147,22.515Zm-13.9-2.337a4.126,4.126,0,0,1,4.382-4.1c2.652,0,3.985,1.558,4.21,4.1Z" transform="translate(0 -5.302)" fill="#868ae1"/>
</svg>
