<svg id="Icon_awesome-linkedin-in" data-name="Icon awesome-linkedin-in" xmlns="http://www.w3.org/2000/svg" width="23.705" height="23.705" viewBox="0 0 23.705 23.705">
  <path id="Icon_awesome-linkedin-in-2" data-name="Icon awesome-linkedin-in" d="M5.306,23.706H.392V7.879H5.306ZM2.846,5.72A2.86,2.86,0,1,1,5.692,2.847,2.87,2.87,0,0,1,2.846,5.72ZM23.7,23.706H18.8V16c0-1.836-.037-4.191-2.555-4.191-2.555,0-2.947,1.995-2.947,4.059v7.837H8.385V7.879H13.1v2.159h.069a5.164,5.164,0,0,1,4.65-2.556c4.974,0,5.888,3.275,5.888,7.53v8.694Z" transform="translate(0 -0.001)" fill="#707070"/>
</svg>
